<svg width="19" height="13" viewBox="0 0 19 13" fill="none" xmlns="http://www.w3.org/2000/svg">
<path d="M8.74804 8.77075C9.53581 8.24747 10.1342 7.48447 10.4546 6.59468C10.775 5.70488 10.8005 4.73557 10.5272 3.83019C10.2539 2.92481 9.69635 2.13147 8.93711 1.56758C8.17788 1.00369 7.25727 0.699219 6.31154 0.699219C5.36581 0.699219 4.44521 1.00369 3.68597 1.56758C2.92673 2.13147 2.36921 2.92481 2.09591 3.83019C1.82261 4.73557 1.84805 5.70488 2.16847 6.59468C2.4889 7.48447 3.08727 8.24747 3.87504 8.77075C2.53215 9.26612 1.3715 10.1579 0.546942 11.3279C0.501957 11.3909 0.469882 11.4622 0.452561 11.5377C0.435241 11.6131 0.433019 11.6913 0.446022 11.7676C0.459025 11.8439 0.486996 11.9169 0.528326 11.9824C0.569656 12.0479 0.623528 12.1045 0.686841 12.1491C0.750154 12.1937 0.821658 12.2253 0.897235 12.2421C0.972813 12.2589 1.05097 12.2606 1.12721 12.2471C1.20345 12.2336 1.27627 12.2052 1.34147 12.1634C1.40667 12.1217 1.46297 12.0674 1.50713 12.0038C2.04898 11.233 2.76836 10.6038 3.60453 10.1695C4.44069 9.73518 5.36908 9.50843 6.31132 9.5084C7.25355 9.50837 8.18196 9.73507 9.01815 10.1693C9.85434 10.6036 10.5738 11.2327 11.1157 12.0035C11.16 12.0667 11.2164 12.1204 11.2815 12.1618C11.3467 12.2031 11.4193 12.2312 11.4954 12.2444C11.5714 12.2577 11.6493 12.2558 11.7245 12.2389C11.7998 12.2221 11.8711 12.1905 11.9341 12.1461C11.9972 12.1017 12.0509 12.0452 12.0922 11.98C12.1335 11.9148 12.1615 11.8421 12.1746 11.7661C12.1878 11.6901 12.1858 11.6122 12.1689 11.5369C12.1519 11.4617 12.1203 11.3905 12.0758 11.3274C11.2513 10.1576 10.0907 9.26609 8.74804 8.77075ZM3.08226 5.10498C3.08226 4.46629 3.27165 3.84195 3.62649 3.3109C3.98132 2.77986 4.48566 2.36596 5.07573 2.12155C5.66579 1.87713 6.31509 1.81318 6.9415 1.93778C7.56791 2.06238 8.14331 2.36994 8.59492 2.82156C9.04654 3.27317 9.3541 3.84857 9.4787 4.47498C9.6033 5.10139 9.53935 5.75069 9.29493 6.34075C9.05052 6.93082 8.63662 7.43516 8.10557 7.78999C7.57453 8.14482 6.95019 8.33422 6.3115 8.33422C5.45535 8.33325 4.63455 7.99271 4.02916 7.38732C3.42377 6.78193 3.08323 5.96113 3.08226 5.10498ZM17.9168 12.1456C17.8538 12.19 17.7826 12.2216 17.7074 12.2384C17.6321 12.2553 17.5543 12.2572 17.4783 12.2441C17.4024 12.2309 17.3297 12.2028 17.2646 12.1616C17.1995 12.1203 17.1431 12.0666 17.0987 12.0036C16.5562 11.2335 15.8366 10.6049 15.0006 10.1707C14.1646 9.73651 13.2366 9.50941 12.2946 9.50849C12.1388 9.50849 11.9895 9.44663 11.8794 9.33652C11.7693 9.22641 11.7074 9.07707 11.7074 8.92135C11.7074 8.76563 11.7693 8.61629 11.8794 8.50618C11.9895 8.39608 12.1388 8.33422 12.2946 8.33422C12.7557 8.3337 13.2114 8.23443 13.6309 8.04307C14.0505 7.85172 14.4242 7.57273 14.7269 7.22487C15.0296 6.87702 15.2544 6.46836 15.3859 6.02639C15.5175 5.58442 15.5529 5.1194 15.4897 4.66262C15.4266 4.20583 15.2663 3.76786 15.0197 3.3782C14.7731 2.98853 14.4459 2.65619 14.0602 2.40354C13.6744 2.15089 13.239 1.98379 12.7833 1.91349C12.3275 1.84318 11.862 1.8713 11.418 1.99595C11.2683 2.03746 11.1083 2.01797 10.973 1.94172C10.8376 1.86548 10.738 1.73871 10.6959 1.58917C10.6539 1.43964 10.6728 1.27952 10.7485 1.1439C10.8242 1.00827 10.9507 0.90819 11.1 0.865568C12.11 0.580601 13.1886 0.665783 14.1414 1.10576C15.0942 1.54574 15.8584 2.31157 16.2965 3.26523C16.7345 4.21889 16.8175 5.29765 16.5305 6.30709C16.2434 7.31652 15.6053 8.19023 14.731 8.77075C16.0738 9.26607 17.2343 10.1577 18.0588 11.3275C18.1485 11.4548 18.1839 11.6125 18.1573 11.766C18.1306 11.9194 18.0441 12.0559 17.9168 12.1456Z" fill="#768390"/>
</svg>
